<?xml version="1.0" standalone="no"?><!DOCTYPE svg PUBLIC "-//W3C//DTD SVG 1.1//EN" "http://www.w3.org/Graphics/SVG/1.1/DTD/svg11.dtd"><svg t="1651591138247" class="icon" viewBox="0 0 1024 1024" version="1.1" xmlns="http://www.w3.org/2000/svg" p-id="4706" xmlns:xlink="http://www.w3.org/1999/xlink" width="200" height="200"><defs><style type="text/css">@font-face { font-family: feedback-iconfont; src: url("//at.alicdn.com/t/font_1031158_u69w8yhxdu.woff2?t=1630033759944") format("woff2"), url("//at.alicdn.com/t/font_1031158_u69w8yhxdu.woff?t=1630033759944") format("woff"), url("//at.alicdn.com/t/font_1031158_u69w8yhxdu.ttf?t=1630033759944") format("truetype"); }
</style></defs><path d="M128 853.333333c0 0.064 768.064 0 768.064 0L896 170.666667c0-0.064-768.064 0-768.064 0L128 853.333333zM127.936 128h768.128C919.594667 128 938.666667 146.986667 938.666667 170.666667v682.666666c0 23.573333-19.029333 42.666667-42.602667 42.666667H127.936A42.56 42.56 0 0 1 85.333333 853.333333V170.666667c0-23.573333 19.029333-42.666667 42.602667-42.666667zM85.333333 384h853.333334v42.666667H85.333333v-42.666667z m256 277.333333v42.666667H170.666667v-42.666667h170.666666z m256 91.946667l41.621334-128a21.333333 21.333333 0 0 0-40.576-13.226667l-21.632 67.690667-23.232-67.968a21.333333 21.333333 0 0 0-40.362667 13.781333l43.733333 128c6.613333 19.413333 34.133333 19.2 40.469334-0.298666z m85.333334 14.72a21.333333 21.333333 0 0 0 21.333333-21.333333v-128a21.333333 21.333333 0 0 0-42.666667 0v128a21.333333 21.333333 0 0 0 21.333334 21.333333z m85.333333-21.333333a21.333333 21.333333 0 0 1-42.666667 0v-128a21.333333 21.333333 0 0 1 36.416-15.104A64 64 0 1 1 768 721.706667V746.666667z m21.333333-106.666667a21.333333 21.333333 0 1 0 0 42.666667 21.333333 21.333333 0 0 0 0-42.666667z" fill="#d4237a" p-id="4707"></path></svg>