<?xml version="1.0" standalone="no"?><!DOCTYPE svg PUBLIC "-//W3C//DTD SVG 1.1//EN" "http://www.w3.org/Graphics/SVG/1.1/DTD/svg11.dtd"><svg t="1651591036614" class="icon" viewBox="0 0 1024 1024" version="1.1" xmlns="http://www.w3.org/2000/svg" p-id="3911" xmlns:xlink="http://www.w3.org/1999/xlink" width="200" height="200"><defs><style type="text/css">@font-face { font-family: feedback-iconfont; src: url("//at.alicdn.com/t/font_1031158_u69w8yhxdu.woff2?t=1630033759944") format("woff2"), url("//at.alicdn.com/t/font_1031158_u69w8yhxdu.woff?t=1630033759944") format("woff"), url("//at.alicdn.com/t/font_1031158_u69w8yhxdu.ttf?t=1630033759944") format("truetype"); }
</style></defs><path d="M921.591828 1024H102.391828A51.2 51.2 0 0 1 51.888148 964.36224l102.4-614.4A51.2 51.2 0 0 1 204.791828 307.2h614.4a51.2 51.2 0 0 1 50.50368 42.76224l102.4 614.4A51.2 51.2 0 0 1 921.591828 1024zM162.848788 921.6h698.368l-85.4016-512H248.168468zM716.791828 256h-102.4v-51.2a102.4 102.4 0 0 0-204.8 0v51.2h-102.4v-51.2a204.8 204.8 0 0 1 409.6 0z" p-id="3912" fill="#d4237a"></path></svg>